<?xml version="1.0" encoding="UTF-8"?>
<svg width="194px" height="45px" viewBox="0 0 194 45" version="1.1" xmlns="http://www.w3.org/2000/svg" xmlns:xlink="http://www.w3.org/1999/xlink">
    <title>logo</title>
    <g id="web" stroke="none" stroke-width="1" fill="none" fill-rule="evenodd">
        <g id="callerdojo.com" transform="translate(-30.000000, -7.000000)">
            <g id="header" transform="translate(0.000000, -0.500000)">
                <g id="logo" transform="translate(30.000000, 8.000000)">
                    <path d="M64.0859375,33.359375 C67.2890625,33.359375 70.1484375,31.765625 71.1484375,29.484375 C71.3515625,29.03125 71.4453125,28.65625 71.4453125,28.296875 C71.4453125,27.171875 70.5859375,26.46875 69.5234375,26.46875 C68.5546875,26.46875 68.0546875,26.859375 67.4453125,27.8125 C66.7421875,29 65.7578125,29.78125 64.1640625,29.78125 C61.8828125,29.78125 60.4609375,27.90625 60.4609375,24.609375 C60.4609375,21.375 61.8828125,19.46875 64.1953125,19.46875 C65.6484375,19.46875 66.6640625,20.140625 67.4921875,21.609375 C67.9609375,22.4375 68.5078125,22.796875 69.4140625,22.796875 C70.4921875,22.796875 71.3671875,22.140625 71.3671875,21.015625 C71.3671875,20.6875 71.2734375,20.28125 71.1171875,19.890625 C70.2109375,17.515625 67.4140625,15.890625 64.0546875,15.890625 C59.0234375,15.890625 55.8359375,19.265625 55.8359375,24.625 C55.8359375,30.046875 59.0390625,33.359375 64.0859375,33.359375 Z M86.2421875,33.328125 C87.5390625,33.328125 88.4609375,32.546875 88.4609375,31.03125 L88.4609375,21.484375 C88.4609375,18.109375 85.6640625,15.890625 81.3671875,15.890625 C77.8984375,15.890625 75.2109375,17.125 74.4296875,19.125 C74.2734375,19.46875 74.1953125,19.796875 74.1953125,20.15625 C74.1953125,21.1875 74.9921875,21.90625 76.1015625,21.90625 C76.8359375,21.90625 77.4140625,21.625 77.9140625,21.0625 C78.9296875,19.75 79.7734375,19.296875 81.1640625,19.296875 C82.8828125,19.296875 83.9765625,20.203125 83.9765625,21.765625 L83.9765625,22.875 L79.7578125,23.125 C75.5703125,23.375 73.2265625,25.140625 73.2265625,28.1875 C73.2265625,31.203125 75.6484375,33.265625 78.8359375,33.265625 C80.9296875,33.265625 83.0234375,32.21875 83.9609375,30.4375 L84.0546875,30.4375 L84.0546875,31.296875 C84.1484375,32.640625 85.0078125,33.328125 86.2421875,33.328125 Z M80.3359375,29.96875 C78.8046875,29.96875 77.7734375,29.1875 77.7734375,27.9375 C77.7734375,26.75 78.7421875,25.984375 80.4453125,25.859375 L83.9765625,25.640625 L83.9765625,26.859375 C83.9765625,28.671875 82.3359375,29.96875 80.3359375,29.96875 Z M93.7890625,33.328125 C95.1328125,33.328125 96.0703125,32.515625 96.0703125,30.953125 L96.0703125,12.5 C96.0703125,10.9375 95.1328125,10.109375 93.7890625,10.109375 C92.4609375,10.109375 91.5078125,10.9375 91.5078125,12.5 L91.5078125,30.953125 C91.5078125,32.515625 92.4609375,33.328125 93.7890625,33.328125 Z M101.539062,33.328125 C102.882812,33.328125 103.820312,32.515625 103.820312,30.953125 L103.820312,12.5 C103.820312,10.9375 102.882812,10.109375 101.539062,10.109375 C100.210938,10.109375 99.2578125,10.9375 99.2578125,12.5 L99.2578125,30.953125 C99.2578125,32.515625 100.210938,33.328125 101.539062,33.328125 Z M114.601562,33.359375 C117.835938,33.359375 120.429688,32.140625 121.539062,30.078125 C121.742188,29.703125 121.851562,29.328125 121.851562,28.96875 C121.851562,27.921875 121.054688,27.296875 120.070312,27.296875 C119.476562,27.296875 119.070312,27.46875 118.585938,27.96875 C117.351562,29.421875 116.257812,29.984375 114.585938,29.984375 C112.273438,29.984375 110.773438,28.359375 110.773438,25.875 L110.773438,25.671875 L120.335938,25.671875 C121.601562,25.671875 122.320312,24.953125 122.320312,23.6875 C122.320312,19.140625 119.132812,15.890625 114.382812,15.890625 C109.429688,15.890625 106.289062,19.3125 106.289062,24.703125 C106.289062,30.125 109.367188,33.359375 114.601562,33.359375 Z M117.929688,22.875 L110.820312,22.875 C110.976562,20.734375 112.429688,19.265625 114.429688,19.265625 C116.429688,19.265625 117.835938,20.6875 117.929688,22.875 Z M126.945312,33.328125 C128.335938,33.328125 129.226562,32.46875 129.226562,30.953125 L129.226562,23.515625 C129.226562,21.53125 129.960938,20.359375 132.039062,20.328125 C132.929688,20.3125 133.585938,20.109375 134.023438,19.734375 C134.460938,19.359375 134.679688,18.8125 134.679688,18.09375 C134.679688,17.3125 134.460938,16.75 134.023438,16.40625 C133.695312,16.125 133.210938,15.984375 132.601562,15.984375 C130.929688,15.984375 129.554688,17.21875 129.117188,19.296875 L129.023438,19.296875 L129.023438,18.203125 C129.023438,16.75 128.148438,15.90625 126.867188,15.90625 C125.554688,15.90625 124.664062,16.75 124.664062,18.203125 L124.664062,30.953125 C124.664062,32.46875 125.570312,33.328125 126.945312,33.328125 Z M149.304688,33.28125 C150.085938,33.28125 150.632812,32.734375 150.632812,31.953125 L150.632812,11.625 C150.632812,10.765625 150.070312,10.171875 149.273438,10.171875 C148.476562,10.171875 147.914062,10.765625 147.914062,11.625 L147.914062,19.390625 L147.851562,19.390625 C146.882812,17.609375 145.007812,16.46875 142.679688,16.46875 C138.585938,16.46875 135.789062,19.78125 135.789062,24.875 C135.789062,29.96875 138.601562,33.28125 142.742188,33.28125 C145.289062,33.28125 146.976562,32.03125 147.867188,30.09375 L147.914062,30.09375 L147.914062,31.953125 C147.914062,32.75 148.539062,33.28125 149.304688,33.28125 Z M143.257812,30.890625 C140.382812,30.890625 138.570312,28.5625 138.570312,24.875 C138.570312,21.203125 140.382812,18.859375 143.257812,18.859375 C146.054688,18.859375 147.929688,21.25 147.929688,24.875 C147.929688,28.515625 146.054688,30.890625 143.257812,30.890625 Z M161.039062,33.28125 C165.523438,33.28125 168.554688,30.046875 168.554688,24.875 C168.554688,19.6875 165.523438,16.46875 161.039062,16.46875 C156.539062,16.46875 153.507812,19.6875 153.507812,24.875 C153.507812,30.046875 156.539062,33.28125 161.039062,33.28125 Z M161.039062,30.890625 C158.164062,30.890625 156.273438,28.703125 156.273438,24.875 C156.273438,21.046875 158.164062,18.859375 161.039062,18.859375 C163.914062,18.859375 165.789062,21.046875 165.789062,24.875 C165.789062,28.703125 163.914062,30.890625 161.039062,30.890625 Z M172.789062,14.015625 C173.726562,14.015625 174.492188,13.25 174.492188,12.328125 C174.492188,11.390625 173.726562,10.640625 172.789062,10.640625 C171.867188,10.640625 171.101562,11.390625 171.101562,12.328125 C171.101562,13.25 171.867188,14.015625 172.789062,14.015625 Z M169.992188,38.578125 C172.617188,38.578125 174.148438,37.09375 174.148438,34.1875 L174.148438,17.921875 C174.148438,17.0625 173.585938,16.46875 172.789062,16.46875 C171.992188,16.46875 171.429688,17.0625 171.429688,17.921875 L171.429688,33.921875 C171.429688,35.359375 170.976562,36.0625 169.710938,36.25 L169.601562,36.265625 C168.742188,36.390625 168.382812,36.8125 168.382812,37.40625 C168.382812,38.109375 168.992188,38.578125 169.992188,38.578125 Z M184.554688,33.28125 C189.039062,33.28125 192.070312,30.046875 192.070312,24.875 C192.070312,19.6875 189.039062,16.46875 184.554688,16.46875 C180.054688,16.46875 177.023438,19.6875 177.023438,24.875 C177.023438,30.046875 180.054688,33.28125 184.554688,33.28125 Z M184.554688,30.890625 C181.679688,30.890625 179.789062,28.703125 179.789062,24.875 C179.789062,21.046875 181.679688,18.859375 184.554688,18.859375 C187.429688,18.859375 189.304688,21.046875 189.304688,24.875 C189.304688,28.703125 187.429688,30.890625 184.554688,30.890625 Z" id="callerdojo" fill="#000000" fill-rule="nonzero"></path>
                    <g transform="translate(0.000000, 0.500000)">
                        <path d="M21.3,0 C33.0636652,-2.16095023e-15 42.6,9.53633483 42.6,21.3 C42.6,26.7369434 40.5629307,31.6981037 37.2103891,35.461884 C37.1922764,35.4565115 37.1747845,35.4533742 37.1572236,35.450508 C35.5155656,35.180308 33.4068476,34.60787 32.5252236,33.94202 C32.0095276,33.55023 30.3296556,32.87087 29.5518656,32.588318 C29.1886396,32.456692 28.5671796,31.383226 28.3537216,30.89841 C28.1379476,30.413594 26.6572516,29.433154 26.2797436,29.378728 L26.2206856,27.359948 L30.5068296,26.02709 C30.5068296,26.02709 31.6111756,25.514868 31.7184836,25.514868 C31.7725236,25.514868 31.6444681,25.311832 31.4929148,25.0815348 L31.3609566,24.8815606 C31.252361,24.7161848 31.154896,24.5625233 31.1263596,24.484634 C31.0961068,24.403574 31.0203664,24.1457743 30.9375083,23.8551886 L30.8536988,23.559006 C30.7425791,23.163742 30.6415436,22.795498 30.6415436,22.795498 C30.6415436,22.795498 32.0886576,24.564536 32.8220576,24.895724 C32.8220576,24.895724 31.3811196,22.190636 30.9522736,20.68292 C30.5211116,19.174818 30.2377876,16.819446 30.2377876,16.604444 C30.2377876,16.387898 29.3496016,10.061744 28.8647856,9.01221 C28.8361365,8.95007614 28.6657818,8.95007614 28.3537216,9.01221 C28.5110918,8.61967571 28.5641337,8.37162368 28.5128476,8.26805392 C28.064743,7.36313033 27.4724521,6.3796809 26.5966496,5.835044 C25.4714596,5.13484 23.8031676,4.138188 21.4061076,4.005018 C21.3702096,4.00386 21.3343116,4.00386 21.2991856,4 C21.2632876,4.003088 21.2270036,4.003088 21.1907196,4.005018 C18.7955896,4.138574 17.1272976,5.135612 16.0017216,5.835044 C14.8776896,6.534862 14.2195596,7.961132 13.7343576,9.01221 C13.6888183,9.11087232 13.6888183,9.31754858 13.7343576,9.63223877 C13.5531266,9.88351335 13.4549537,10.053162 13.4398389,10.1411846 C12.7205927,14.3298063 12.3609696,16.4842261 12.3609696,16.604444 C12.3609696,16.819446 12.1096836,19.27016 11.6789076,20.776718 C11.2778403,22.1811723 9.9747061,24.5405595 9.79687103,24.8593123 L9.77669958,24.895338 L9.77669958,24.895338 C10.5108716,24.564536 11.9568276,22.795112 11.9568276,22.795112 C11.9568276,22.795112 11.4357276,24.412066 11.3538956,24.62784 C11.2724496,24.844772 10.7729656,25.514868 10.8810456,25.514868 C10.9875816,25.514868 12.0926996,26.02709 12.0926996,26.02709 L16.3800016,27.359948 L16.3193996,29.378728 C15.9430496,29.433154 14.4623536,30.414366 14.2465796,30.89841 C14.0304196,31.383226 13.4105036,32.456692 13.0480496,32.588318 C12.2683296,32.870484 10.5903876,33.55023 10.0743056,33.94202 C9.19075158,34.608256 7.08705158,35.180308 5.44384958,35.450508 L5.38961087,35.461884 C2.03706928,31.6981037 6.65833528e-16,26.7369434 0,21.3 C-1.44063349e-15,9.53633483 9.53633483,2.16095023e-15 21.3,0 Z" id="Path-2" fill="#32C5FF" fill-rule="nonzero"></path>
                        <path d="M13.7343576,9.63223877 C19.4977379,10.676658 24.3708592,10.4699818 28.3537216,9.01221 C29.087904,8.74349108 29.8116754,8.6014675 30.0610855,8.91531372 C30.4939979,9.4600707 30.6631327,11.1582887 30.1819328,10.5152901 C30.0690768,10.3644873 29.6300277,9.86346063 28.8647856,9.01221 L29.0655441,9.44158478 C29.3637899,10.1573883 29.5129128,10.9309119 29.5129128,11.7621555 C25.5029335,12.9755774 20.8329887,14.0709019 13.0892487,12.2333145 C13.0892487,11.8190101 13.2738835,10.4840188 13.4480423,10.011145 C13.4898643,9.89759048 13.5853027,9.77128839 13.7343576,9.63223877 Z" id="Path-3" fill="#000000"></path>
                        <rect id="Rectangle" stroke="#004D87" stroke-width="2.3" x="1.15" y="1.15" width="40.3" height="40.3" rx="20.15"></rect>
                    </g>
                </g>
            </g>
        </g>
    </g>
</svg>