<?xml version="1.0" encoding="UTF-8"?>
<svg width="57px" height="54px" viewBox="0 0 57 54" version="1.1" xmlns="http://www.w3.org/2000/svg" xmlns:xlink="http://www.w3.org/1999/xlink">
    <title>sample call bar</title>
    <defs>
        <rect id="path-1" x="0" y="0" width="50" height="50" rx="5"></rect>
    </defs>
    <g id="web" stroke="none" stroke-width="1" fill="none" fill-rule="evenodd">
        <g id="callerdojo.com" transform="translate(-691.000000, -634.000000)">
            <g id="editor" transform="translate(282.500000, 202.000000)">
                <g id="Group" transform="translate(221.653766, 86.000000)">
                    <g id="sample-call-bar" transform="translate(190.846234, 348.000000)">
                        <mask id="mask-2" fill="white">
                            <use xlink:href="#path-1"></use>
                        </mask>
                        <rect stroke="#FFFFFF" stroke-width="2" x="-1" y="-1" width="52" height="52" rx="5"></rect>
                        <path d="M31.5315775,42.2452129 C29.5503698,41.9577478 27.6670701,41.1990584 26.039858,40.0328676 C24.1541505,38.7193457 22.4219359,37.198187 20.8757861,35.4979948 C18.9765906,33.4683202 17.0426007,31.4647415 15.3666694,29.2263004 C14.047381,27.4285887 12.8672702,25.5438909 12.2235734,23.3779382 C11.7759488,22.0008407 11.6587401,20.5377183 11.8814283,19.106923 C12.1713818,17.3990968 13.0760367,16.0102195 14.3141382,14.847506 C14.8247786,14.3908407 15.3793594,13.9858317 15.9697727,13.6383999 C16.6881786,13.1820141 17.6092449,13.1968332 18.3125971,13.6760938 C19.961134,14.6571138 21.2246684,16.172332 21.8935229,17.9703053 C22.1270761,18.4861991 22.0615343,19.0882945 21.7224503,19.5418533 C21.3078168,20.1014635 20.8757861,20.6465761 20.458253,21.2061864 C20.0900121,21.7020069 19.7072734,22.1891288 19.379626,22.7110451 C19.0336977,23.1987541 19.0395421,23.8533303 19.3941237,24.3347847 C20.2204911,25.4945988 21.0207628,26.6892072 21.9196187,27.7939301 C23.5459891,29.8071858 25.3468169,31.673022 27.3011558,33.369736 C27.7360861,33.7437761 28.2029112,34.0743231 28.6668368,34.4135687 C29.0703781,34.7272734 29.6197035,34.7771091 30.0731113,34.5411482 C30.5702605,34.2961178 31.0541842,34.0251205 31.5228789,33.7292784 C32.1723747,33.3146449 32.8102724,32.8884132 33.4481702,32.4795788 C33.9843363,32.1364519 34.6676404,32.1230099 35.2168866,32.4447843 C36.8619604,33.2610121 38.2030261,34.5817586 39.0442729,36.2141799 C39.5284878,37.0488918 39.4453501,38.0961956 38.8355063,38.8440583 C37.2320634,40.9491207 35.1820921,42.2481124 32.4565292,42.3061031 C32.1473748,42.3016057 31.8386534,42.2812823 31.5315775,42.2452129 Z" id="Path" fill="#FFFFFF" fill-rule="nonzero" mask="url(#mask-2)" transform="translate(25.564560, 27.806103) rotate(-228.000000) translate(-25.564560, -27.806103) "></path>
                    </g>
                </g>
            </g>
        </g>
    </g>
</svg>