<?xml version="1.0" encoding="UTF-8"?>
<svg width="432px" height="436px" viewBox="0 0 432 436" version="1.1" xmlns="http://www.w3.org/2000/svg" xmlns:xlink="http://www.w3.org/1999/xlink">
    <title>Path</title>
    <g id="web" stroke="none" stroke-width="1" fill="none" fill-rule="evenodd" fill-opacity="0.298093996">
        <g id="callerdojo.com" transform="translate(-504.000000, -288.000000)" fill="#808080" fill-rule="nonzero">
            <g id="editor" transform="translate(282.500000, 202.000000)">
                <path d="M652.785564,522 C652.952219,521.11056 646.660739,474.96432 646.599699,474.03128 C646.599699,474.03128 634.871299,444.26992 616.332579,441.24408 C597.789499,438.19208 573.970819,431.7262 564.012579,424.2052 C558.187619,419.7798 539.212899,412.1062 530.427499,408.91468 C526.324739,407.42792 519.305139,395.30276 516.894059,389.8266 C514.456819,384.35044 497.731859,373.27604 493.467779,372.66128 L492.800699,349.85848 L541.214139,334.8034 C541.214139,334.8034 553.688099,329.01768 554.900179,329.01768 C556.120979,329.01768 549.114459,319.84424 548.211939,317.38084 C547.300699,314.93924 542.735779,298.30148 542.735779,298.30148 C542.735779,298.30148 559.081419,318.28336 567.365419,322.02424 C567.365419,322.02424 551.089539,291.46936 546.245579,274.4392 C541.375459,257.40468 538.175219,230.79996 538.175219,228.37144 C538.175219,225.92548 528.142859,154.46944 522.666699,142.6146 C517.190539,130.73796 509.765459,114.63648 497.047339,106.72744 C484.337939,98.8184 465.494019,87.56088 438.418419,86.05668 C438.012939,86.0436 437.607459,86.0436 437.210699,86 C436.805219,86.03488 436.395379,86.03488 435.985539,86.05668 C408.931739,87.56524 390.087819,98.82712 377.374059,106.72744 C364.677739,114.63212 357.243939,130.74232 351.763419,142.6146 C346.291619,154.46944 336.250539,225.92548 336.250539,228.37144 C336.250539,230.79996 333.412179,258.4816 328.546419,275.49868 C323.680659,292.53756 307.060339,322.01988 307.060339,322.01988 C315.353059,318.28336 331.685619,298.29712 331.685619,298.29712 C331.685619,298.29712 325.799619,316.56116 324.875299,318.9984 C323.955339,321.44872 318.313499,329.01768 319.534299,329.01768 C320.737659,329.01768 333.220339,334.8034 333.220339,334.8034 L381.646859,349.85848 L380.962339,372.66128 C376.711339,373.27604 359.986379,384.35916 357.549139,389.8266 C355.107539,395.30276 348.105379,407.42792 344.011339,408.91468 C335.204139,412.10184 316.251219,419.7798 310.421899,424.2052 C300.441859,431.73056 276.679859,438.19208 258.119339,441.24408 C239.571899,444.26556 227.852219,471.9472 227.852219,471.9472 C227.782459,472.88896 221.499699,521.11056 221.653766,522 L652.785564,522 Z" id="Path"></path>
            </g>
        </g>
    </g>
</svg>