<?xml version="1.0" encoding="UTF-8"?>
<svg width="432px" height="436px" viewBox="0 0 432 436" version="1.1" xmlns="http://www.w3.org/2000/svg" xmlns:xlink="http://www.w3.org/1999/xlink">
    <title>Path</title>
    <g id="web" stroke="none" stroke-width="1" fill="none" fill-rule="evenodd" fill-opacity="0.298093996">
        <g id="callerdojo.com" transform="translate(-504.000000, -288.000000)" fill="#444444" fill-rule="nonzero">
            <g id="editor" transform="translate(282.500000, 202.000000)">
                <g id="Group" transform="translate(221.653766, 86.000000)">
                    <path d="M431.131798,436 C431.298453,435.11056 425.006973,388.96432 424.945933,388.03128 C424.945933,388.03128 413.217533,358.26992 394.678813,355.24408 C376.135733,352.19208 352.317053,345.7262 342.358813,338.2052 C336.533853,333.7798 317.559133,326.1062 308.773733,322.91468 C304.670973,321.42792 297.651373,309.30276 295.240293,303.8266 C292.803053,298.35044 276.078093,287.27604 271.814013,286.66128 L271.146933,263.85848 L319.560373,248.8034 C319.560373,248.8034 332.034333,243.01768 333.246413,243.01768 C334.467213,243.01768 327.460693,233.84424 326.558173,231.38084 C325.646933,228.93924 321.082013,212.30148 321.082013,212.30148 C321.082013,212.30148 337.427653,232.28336 345.711653,236.02424 C345.711653,236.02424 329.435773,205.46936 324.591813,188.4392 C319.721693,171.40468 316.521453,144.79996 316.521453,142.37144 C316.521453,139.92548 306.489093,68.46944 301.012933,56.6146 C295.536773,44.73796 288.111693,28.63648 275.393573,20.72744 C262.684173,12.8184 243.840253,1.56088 216.764653,0.05668 C216.359173,0.0436 215.953693,0.0436 215.556933,5.68434189e-14 C215.151453,0.03488 214.741613,0.03488 214.331773,0.05668 C187.277973,1.56524 168.434053,12.82712 155.720293,20.72744 C143.023973,28.63212 135.590173,44.74232 130.109653,56.6146 C124.637853,68.46944 114.596773,139.92548 114.596773,142.37144 C114.596773,144.79996 111.758413,172.4816 106.892653,189.49868 C102.026893,206.53756 85.4065726,236.01988 85.4065726,236.01988 C93.6992926,232.28336 110.031853,212.29712 110.031853,212.29712 C110.031853,212.29712 104.145853,230.56116 103.221533,232.9984 C102.301573,235.44872 96.6597326,243.01768 97.8805326,243.01768 C99.0838926,243.01768 111.566573,248.8034 111.566573,248.8034 L159.993093,263.85848 L159.308573,286.66128 C155.057573,287.27604 138.332613,298.35916 135.895373,303.8266 C133.453773,309.30276 126.451613,321.42792 122.357573,322.91468 C113.550373,326.10184 94.5974526,333.7798 88.7681326,338.2052 C78.7880926,345.73056 55.0260926,352.19208 36.4655726,355.24408 C17.9181326,358.26556 6.1984526,385.9472 6.1984526,385.9472 C6.1286926,386.88896 -0.154067402,435.11056 -2.84217094e-14,436 L431.131798,436 Z" id="Path"></path>
                </g>
            </g>
        </g>
    </g>
</svg>