<?xml version="1.0" encoding="UTF-8"?>
<svg width="432px" height="436px" viewBox="0 0 432 436" version="1.1" xmlns="http://www.w3.org/2000/svg" xmlns:xlink="http://www.w3.org/1999/xlink">
    <title>Path Copy</title>
    <g id="web" stroke="none" stroke-width="1" fill="none" fill-rule="evenodd" fill-opacity="0.152752643">
        <g id="callerdojo.com" transform="translate(-957.000000, -288.000000)" fill="#B4B4B4" fill-rule="nonzero">
            <g id="editor" transform="translate(282.500000, 202.000000)">
                <g id="Group" transform="translate(221.653766, 86.000000)">
                    <path d="M883.978032,436 C884.144686,435.11056 877.853206,388.96432 877.792166,388.03128 C877.792166,388.03128 866.063766,358.26992 847.525046,355.24408 C828.981966,352.19208 805.163286,345.7262 795.205046,338.2052 C789.380086,333.7798 770.405366,326.1062 761.619966,322.91468 C757.517206,321.42792 750.497606,309.30276 748.086526,303.8266 C745.649286,298.35044 728.924326,287.27604 724.660246,286.66128 L723.993166,263.85848 L772.406606,248.8034 C772.406606,248.8034 784.880566,243.01768 786.092646,243.01768 C787.313446,243.01768 780.306926,233.84424 779.404406,231.38084 C778.493166,228.93924 773.928246,212.30148 773.928246,212.30148 C773.928246,212.30148 790.273886,232.28336 798.557886,236.02424 C798.557886,236.02424 782.282006,205.46936 777.438046,188.4392 C772.567926,171.40468 769.367686,144.79996 769.367686,142.37144 C769.367686,139.92548 759.335326,68.46944 753.859166,56.6146 C748.383006,44.73796 740.957926,28.63648 728.239806,20.72744 C715.530406,12.8184 696.686486,1.56088 669.610886,0.05668 C669.205406,0.0436 668.799926,0.0436 668.403166,5.68434189e-14 C667.997686,0.03488 667.587846,0.03488 667.178006,0.05668 C640.124206,1.56524 621.280286,12.82712 608.566526,20.72744 C595.870206,28.63212 588.436406,44.74232 582.955886,56.6146 C577.484086,68.46944 567.443006,139.92548 567.443006,142.37144 C567.443006,144.79996 564.604646,172.4816 559.738886,189.49868 C554.873126,206.53756 538.252806,236.01988 538.252806,236.01988 C546.545526,232.28336 562.878086,212.29712 562.878086,212.29712 C562.878086,212.29712 556.992086,230.56116 556.067766,232.9984 C555.147806,235.44872 549.505966,243.01768 550.726766,243.01768 C551.930126,243.01768 564.412806,248.8034 564.412806,248.8034 L612.839326,263.85848 L612.154806,286.66128 C607.903806,287.27604 591.178846,298.35916 588.741606,303.8266 C586.300006,309.30276 579.297846,321.42792 575.203806,322.91468 C566.396606,326.10184 547.443686,333.7798 541.614366,338.2052 C531.634326,345.73056 507.872326,352.19208 489.311806,355.24408 C470.764366,358.26556 459.044686,385.9472 459.044686,385.9472 C458.974926,386.88896 452.692166,435.11056 452.846234,436 L883.978032,436 Z" id="Path-Copy"></path>
                </g>
            </g>
        </g>
    </g>
</svg>