<?xml version="1.0" encoding="UTF-8"?>
<svg width="140px" height="20px" viewBox="0 0 140 20" version="1.1" xmlns="http://www.w3.org/2000/svg" xmlns:xlink="http://www.w3.org/1999/xlink">
    <title>watermark-light</title>
    <g id="web" stroke="none" stroke-width="1" fill="none" fill-rule="evenodd" fill-opacity="0.449846174">
        <g id="callerdojo.com" transform="translate(-987.000000, -643.000000)" fill="#FFFFFF" fill-rule="nonzero">
            <g id="watermark-light" transform="translate(987.500000, 643.000000)">
                <path d="M6.171875,15.984375 C8.37402344,15.984375 10.3398438,14.8886719 11.0273438,13.3203125 C11.1669922,13.0087891 11.2314453,12.7509766 11.2314453,12.5039062 C11.2314453,11.7304688 10.640625,11.2470703 9.91015625,11.2470703 C9.24414062,11.2470703 8.90039062,11.515625 8.48144531,12.1708984 C7.99804688,12.9873047 7.32128906,13.5244141 6.22558594,13.5244141 C4.65722656,13.5244141 3.6796875,12.2353516 3.6796875,9.96875 C3.6796875,7.74511719 4.65722656,6.43457031 6.24707031,6.43457031 C7.24609375,6.43457031 7.94433594,6.89648438 8.51367188,7.90625 C8.8359375,8.47558594 9.21191406,8.72265625 9.83496094,8.72265625 C10.5761719,8.72265625 11.1777344,8.27148438 11.1777344,7.49804688 C11.1777344,7.27246094 11.1132812,6.99316406 11.0058594,6.72460938 C10.3828125,5.09179688 8.45996094,3.97460938 6.15039062,3.97460938 C2.69140625,3.97460938 0.5,6.29492188 0.5,9.97949219 C0.5,13.7070312 2.70214844,15.984375 6.171875,15.984375 Z M21.4042969,15.9628906 C22.2958984,15.9628906 22.9296875,15.4257812 22.9296875,14.3837891 L22.9296875,7.8203125 C22.9296875,5.5 21.0068359,3.97460938 18.0527344,3.97460938 C15.6679688,3.97460938 13.8203125,4.82324219 13.2832031,6.19824219 C13.1757812,6.43457031 13.1220703,6.66015625 13.1220703,6.90722656 C13.1220703,7.61621094 13.6699219,8.11035156 14.4326172,8.11035156 C14.9375,8.11035156 15.3349609,7.91699219 15.6787109,7.53027344 C16.3769531,6.62792969 16.9570312,6.31640625 17.9130859,6.31640625 C19.0947266,6.31640625 19.8466797,6.93945312 19.8466797,8.01367188 L19.8466797,8.77636719 L16.9462891,8.94824219 C14.0673828,9.12011719 12.4560547,10.3339844 12.4560547,12.4287109 C12.4560547,14.5019531 14.1210938,15.9199219 16.3125,15.9199219 C17.7519531,15.9199219 19.1914062,15.2001953 19.8359375,13.9755859 L19.9003906,13.9755859 L19.9003906,14.5664062 C19.9648438,15.4902344 20.5556641,15.9628906 21.4042969,15.9628906 Z M17.34375,13.6533203 C16.2910156,13.6533203 15.5820312,13.1162109 15.5820312,12.2568359 C15.5820312,11.4404297 16.2480469,10.9140625 17.4189453,10.828125 L19.8466797,10.6777344 L19.8466797,11.515625 C19.8466797,12.7617188 18.71875,13.6533203 17.34375,13.6533203 Z M26.5927734,15.9628906 C27.5166016,15.9628906 28.1611328,15.4042969 28.1611328,14.3300781 L28.1611328,1.64355469 C28.1611328,0.569335938 27.5166016,0 26.5927734,0 C25.6796875,0 25.0244141,0.569335938 25.0244141,1.64355469 L25.0244141,14.3300781 C25.0244141,15.4042969 25.6796875,15.9628906 26.5927734,15.9628906 Z M31.9208984,15.9628906 C32.8447266,15.9628906 33.4892578,15.4042969 33.4892578,14.3300781 L33.4892578,1.64355469 C33.4892578,0.569335938 32.8447266,0 31.9208984,0 C31.0078125,0 30.3525391,0.569335938 30.3525391,1.64355469 L30.3525391,14.3300781 C30.3525391,15.4042969 31.0078125,15.9628906 31.9208984,15.9628906 Z M40.9013672,15.984375 C43.125,15.984375 44.9082031,15.1464844 45.6708984,13.7285156 C45.8105469,13.4707031 45.8857422,13.2128906 45.8857422,12.9658203 C45.8857422,12.2460938 45.3378906,11.8164062 44.6611328,11.8164062 C44.2529297,11.8164062 43.9736328,11.9345703 43.640625,12.2783203 C42.7919922,13.2773438 42.0400391,13.6640625 40.890625,13.6640625 C39.3007812,13.6640625 38.2695312,12.546875 38.2695312,10.8388672 L38.2695312,10.6992188 L44.84375,10.6992188 C45.7138672,10.6992188 46.2080078,10.2050781 46.2080078,9.33496094 C46.2080078,6.20898438 44.0166016,3.97460938 40.7509766,3.97460938 C37.3457031,3.97460938 35.1865234,6.32714844 35.1865234,10.0332031 C35.1865234,13.7607422 37.3027344,15.984375 40.9013672,15.984375 Z M43.1894531,8.77636719 L38.3017578,8.77636719 C38.4091797,7.3046875 39.4082031,6.29492188 40.7832031,6.29492188 C42.1582031,6.29492188 43.125,7.27246094 43.1894531,8.77636719 Z M49.3876953,15.9628906 C50.34375,15.9628906 50.9560547,15.3720703 50.9560547,14.3300781 L50.9560547,9.21679688 C50.9560547,7.85253906 51.4609375,7.046875 52.8896484,7.02539062 C53.5019531,7.01464844 53.953125,6.875 54.2539062,6.6171875 C54.5546875,6.359375 54.7050781,5.98339844 54.7050781,5.48925781 C54.7050781,4.95214844 54.5546875,4.56542969 54.2539062,4.32910156 C54.0283203,4.13574219 53.6953125,4.0390625 53.2763672,4.0390625 C52.1269531,4.0390625 51.1816406,4.88769531 50.8808594,6.31640625 L50.8164062,6.31640625 L50.8164062,5.56445312 C50.8164062,4.56542969 50.2148438,3.98535156 49.3339844,3.98535156 C48.4316406,3.98535156 47.8193359,4.56542969 47.8193359,5.56445312 L47.8193359,14.3300781 C47.8193359,15.3720703 48.4423828,15.9628906 49.3876953,15.9628906 Z M64.7597656,15.9306641 C65.296875,15.9306641 65.6728516,15.5546875 65.6728516,15.0175781 L65.6728516,1.04199219 C65.6728516,0.451171875 65.2861328,0.04296875 64.7382812,0.04296875 C64.1904297,0.04296875 63.8037109,0.451171875 63.8037109,1.04199219 L63.8037109,6.38085938 L63.7607422,6.38085938 C63.0947266,5.15625 61.8056641,4.37207031 60.2050781,4.37207031 C57.390625,4.37207031 55.4677734,6.64941406 55.4677734,10.1513672 C55.4677734,13.6533203 57.4013672,15.9306641 60.2480469,15.9306641 C61.9990234,15.9306641 63.1591797,15.0712891 63.7714844,13.7392578 L63.8037109,13.7392578 L63.8037109,15.0175781 C63.8037109,15.5654297 64.2333984,15.9306641 64.7597656,15.9306641 Z M60.6025391,14.2871094 C58.6259766,14.2871094 57.3798828,12.6865234 57.3798828,10.1513672 C57.3798828,7.62695312 58.6259766,6.015625 60.6025391,6.015625 C62.5253906,6.015625 63.8144531,7.65917969 63.8144531,10.1513672 C63.8144531,12.6542969 62.5253906,14.2871094 60.6025391,14.2871094 Z M72.8271484,15.9306641 C75.9101562,15.9306641 77.9941406,13.7070312 77.9941406,10.1513672 C77.9941406,6.58496094 75.9101562,4.37207031 72.8271484,4.37207031 C69.7333984,4.37207031 67.6494141,6.58496094 67.6494141,10.1513672 C67.6494141,13.7070312 69.7333984,15.9306641 72.8271484,15.9306641 Z M72.8271484,14.2871094 C70.8505859,14.2871094 69.5507812,12.7832031 69.5507812,10.1513672 C69.5507812,7.51953125 70.8505859,6.015625 72.8271484,6.015625 C74.8037109,6.015625 76.0927734,7.51953125 76.0927734,10.1513672 C76.0927734,12.7832031 74.8037109,14.2871094 72.8271484,14.2871094 Z M80.9052734,2.68554688 C81.5498047,2.68554688 82.0761719,2.15917969 82.0761719,1.52539062 C82.0761719,0.880859375 81.5498047,0.365234375 80.9052734,0.365234375 C80.2714844,0.365234375 79.7451172,0.880859375 79.7451172,1.52539062 C79.7451172,2.15917969 80.2714844,2.68554688 80.9052734,2.68554688 Z M78.9824219,19.5722656 C80.7871094,19.5722656 81.8398438,18.5517578 81.8398438,16.5537109 L81.8398438,5.37109375 C81.8398438,4.78027344 81.453125,4.37207031 80.9052734,4.37207031 C80.3574219,4.37207031 79.9707031,4.78027344 79.9707031,5.37109375 L79.9707031,16.3710938 C79.9707031,17.359375 79.6591797,17.8427734 78.7890625,17.9716797 L78.7138672,17.9824219 C78.1230469,18.0683594 77.8759766,18.3583984 77.8759766,18.7666016 C77.8759766,19.25 78.2949219,19.5722656 78.9824219,19.5722656 Z M88.9941406,15.9306641 C92.0771484,15.9306641 94.1611328,13.7070312 94.1611328,10.1513672 C94.1611328,6.58496094 92.0771484,4.37207031 88.9941406,4.37207031 C85.9003906,4.37207031 83.8164062,6.58496094 83.8164062,10.1513672 C83.8164062,13.7070312 85.9003906,15.9306641 88.9941406,15.9306641 Z M88.9941406,14.2871094 C87.0175781,14.2871094 85.7177734,12.7832031 85.7177734,10.1513672 C85.7177734,7.51953125 87.0175781,6.015625 88.9941406,6.015625 C90.9707031,6.015625 92.2597656,7.51953125 92.2597656,10.1513672 C92.2597656,12.7832031 90.9707031,14.2871094 88.9941406,14.2871094 Z M96.9755859,15.8447266 C97.6630859,15.8447266 98.2001953,15.3076172 98.2001953,14.6201172 C98.2001953,13.9326172 97.6630859,13.3955078 96.9755859,13.3955078 C96.2880859,13.3955078 95.7509766,13.9326172 95.7509766,14.6201172 C95.7509766,15.3076172 96.2880859,15.8447266 96.9755859,15.8447266 Z M104.946289,15.9306641 C106.976562,15.9306641 108.749023,14.8134766 109.286133,13.2666016 C109.339844,13.0947266 109.37207,12.9335938 109.37207,12.7939453 C109.37207,12.3105469 109.049805,11.9775391 108.566406,11.9775391 C108.158203,11.9775391 107.954102,12.1279297 107.685547,12.6328125 C107.105469,13.7070312 106.289062,14.2871094 104.946289,14.2871094 C103.023438,14.2871094 101.691406,12.71875 101.691406,10.1513672 C101.691406,7.6484375 103.001953,6.015625 104.946289,6.015625 C106.235352,6.015625 107.083984,6.56347656 107.674805,7.66992188 C107.932617,8.15332031 108.158203,8.32519531 108.566406,8.32519531 C109.049805,8.32519531 109.361328,8.00292969 109.361328,7.50878906 C109.361328,7.390625 109.339844,7.25097656 109.296875,7.11132812 C108.867188,5.56445312 107.030273,4.37207031 104.924805,4.37207031 C101.831055,4.37207031 99.7900391,6.66015625 99.7900391,10.1728516 C99.7900391,13.7070312 101.852539,15.9306641 104.946289,15.9306641 Z M115.989258,15.9306641 C119.072266,15.9306641 121.15625,13.7070312 121.15625,10.1513672 C121.15625,6.58496094 119.072266,4.37207031 115.989258,4.37207031 C112.895508,4.37207031 110.811523,6.58496094 110.811523,10.1513672 C110.811523,13.7070312 112.895508,15.9306641 115.989258,15.9306641 Z M115.989258,14.2871094 C114.012695,14.2871094 112.712891,12.7832031 112.712891,10.1513672 C112.712891,7.51953125 114.012695,6.015625 115.989258,6.015625 C117.96582,6.015625 119.254883,7.51953125 119.254883,10.1513672 C119.254883,12.7832031 117.96582,14.2871094 115.989258,14.2871094 Z M137.398438,15.9306641 C137.967773,15.9306641 138.333008,15.5009766 138.333008,14.9316406 L138.333008,8.02441406 C138.333008,5.81152344 136.904297,4.37207031 134.691406,4.37207031 C133.123047,4.37207031 131.8125,5.16699219 131.189453,6.49902344 L131.146484,6.49902344 C130.663086,5.14550781 129.535156,4.37207031 128.009766,4.37207031 C126.505859,4.37207031 125.367188,5.16699219 124.84082,6.34863281 L124.797852,6.34863281 L124.797852,5.31738281 C124.797852,4.75878906 124.432617,4.37207031 123.916992,4.37207031 C123.401367,4.37207031 123.036133,4.75878906 123.036133,5.31738281 L123.036133,14.9316406 C123.036133,15.5009766 123.401367,15.9306641 123.970703,15.9306641 C124.540039,15.9306641 124.905273,15.5009766 124.905273,14.9316406 L124.905273,8.73339844 C124.905273,7.18652344 125.979492,6.02636719 127.461914,6.02636719 C128.847656,6.02636719 129.75,6.90722656 129.75,8.25 L129.75,14.9316406 C129.75,15.5009766 130.115234,15.9306641 130.68457,15.9306641 C131.253906,15.9306641 131.619141,15.5009766 131.619141,14.9316406 L131.619141,8.63671875 C131.619141,7.12207031 132.661133,6.02636719 134.143555,6.02636719 C135.615234,6.02636719 136.463867,6.92871094 136.463867,8.45410156 L136.463867,14.9316406 C136.463867,15.5009766 136.829102,15.9306641 137.398438,15.9306641 Z" id="callerdojo.com"></path>
            </g>
        </g>
    </g>
</svg>