<?xml version="1.0" encoding="UTF-8"?>
<svg width="141px" height="26px" viewBox="0 0 141 26" version="1.1" xmlns="http://www.w3.org/2000/svg" xmlns:xlink="http://www.w3.org/1999/xlink">
    <title>watermark</title>
    <g id="web" stroke="none" stroke-width="1" fill="none" fill-rule="evenodd" opacity="0.503652989">
        <g id="callerdojo.com" transform="translate(-992.000000, -678.000000)" fill="#7B7B7B" fill-rule="nonzero">
            <g id="watermark" transform="translate(992.500000, 678.000000)">
                <path d="M6.47607422,21.2470703 C8.67822266,21.2470703 10.644043,20.1513672 11.331543,18.5830078 C11.4711914,18.2714844 11.5356445,18.0136719 11.5356445,17.7666016 C11.5356445,16.9931641 10.9448242,16.5097656 10.2143555,16.5097656 C9.54833984,16.5097656 9.20458984,16.7783203 8.78564453,17.4335938 C8.30224609,18.25 7.62548828,18.7871094 6.52978516,18.7871094 C4.96142578,18.7871094 3.98388672,17.4980469 3.98388672,15.2314453 C3.98388672,13.0078125 4.96142578,11.6972656 6.55126953,11.6972656 C7.55029297,11.6972656 8.24853516,12.1591797 8.81787109,13.1689453 C9.14013672,13.7382812 9.51611328,13.9853516 10.1391602,13.9853516 C10.8803711,13.9853516 11.4819336,13.5341797 11.4819336,12.7607422 C11.4819336,12.5351562 11.4174805,12.2558594 11.3100586,11.9873047 C10.6870117,10.3544922 8.76416016,9.23730469 6.45458984,9.23730469 C2.99560547,9.23730469 0.804199219,11.5576172 0.804199219,15.2421875 C0.804199219,18.9697266 3.00634766,21.2470703 6.47607422,21.2470703 Z M21.7084961,21.2255859 C22.6000977,21.2255859 23.2338867,20.6884766 23.2338867,19.6464844 L23.2338867,13.0830078 C23.2338867,10.7626953 21.3110352,9.23730469 18.3569336,9.23730469 C15.972168,9.23730469 14.1245117,10.0859375 13.5874023,11.4609375 C13.4799805,11.6972656 13.4262695,11.9228516 13.4262695,12.1699219 C13.4262695,12.8789062 13.9741211,13.3730469 14.7368164,13.3730469 C15.2416992,13.3730469 15.6391602,13.1796875 15.9829102,12.7929688 C16.6811523,11.890625 17.2612305,11.5791016 18.2172852,11.5791016 C19.3989258,11.5791016 20.1508789,12.2021484 20.1508789,13.2763672 L20.1508789,14.0390625 L17.2504883,14.2109375 C14.371582,14.3828125 12.7602539,15.5966797 12.7602539,17.6914062 C12.7602539,19.7646484 14.425293,21.1826172 16.6166992,21.1826172 C18.0561523,21.1826172 19.4956055,20.4628906 20.1401367,19.2382812 L20.2045898,19.2382812 L20.2045898,19.8291016 C20.269043,20.7529297 20.8598633,21.2255859 21.7084961,21.2255859 Z M17.6479492,18.9160156 C16.5952148,18.9160156 15.8862305,18.3789062 15.8862305,17.5195312 C15.8862305,16.703125 16.5522461,16.1767578 17.7231445,16.0908203 L20.1508789,15.9404297 L20.1508789,16.7783203 C20.1508789,18.0244141 19.0229492,18.9160156 17.6479492,18.9160156 Z M26.8969727,21.2255859 C27.8208008,21.2255859 28.465332,20.6669922 28.465332,19.5927734 L28.465332,6.90625 C28.465332,5.83203125 27.8208008,5.26269531 26.8969727,5.26269531 C25.9838867,5.26269531 25.3286133,5.83203125 25.3286133,6.90625 L25.3286133,19.5927734 C25.3286133,20.6669922 25.9838867,21.2255859 26.8969727,21.2255859 Z M32.2250977,21.2255859 C33.1489258,21.2255859 33.793457,20.6669922 33.793457,19.5927734 L33.793457,6.90625 C33.793457,5.83203125 33.1489258,5.26269531 32.2250977,5.26269531 C31.3120117,5.26269531 30.6567383,5.83203125 30.6567383,6.90625 L30.6567383,19.5927734 C30.6567383,20.6669922 31.3120117,21.2255859 32.2250977,21.2255859 Z M41.2055664,21.2470703 C43.4291992,21.2470703 45.2124023,20.4091797 45.9750977,18.9912109 C46.1147461,18.7333984 46.1899414,18.4755859 46.1899414,18.2285156 C46.1899414,17.5087891 45.6420898,17.0791016 44.965332,17.0791016 C44.5571289,17.0791016 44.277832,17.1972656 43.9448242,17.5410156 C43.0961914,18.5400391 42.3442383,18.9267578 41.1948242,18.9267578 C39.6049805,18.9267578 38.5737305,17.8095703 38.5737305,16.1015625 L38.5737305,15.9619141 L45.1479492,15.9619141 C46.0180664,15.9619141 46.512207,15.4677734 46.512207,14.5976562 C46.512207,11.4716797 44.3208008,9.23730469 41.0551758,9.23730469 C37.6499023,9.23730469 35.4907227,11.5898438 35.4907227,15.2958984 C35.4907227,19.0234375 37.6069336,21.2470703 41.2055664,21.2470703 Z M43.4936523,14.0390625 L38.605957,14.0390625 C38.7133789,12.5673828 39.7124023,11.5576172 41.0874023,11.5576172 C42.4624023,11.5576172 43.4291992,12.5351562 43.4936523,14.0390625 Z M49.6918945,21.2255859 C50.6479492,21.2255859 51.2602539,20.6347656 51.2602539,19.5927734 L51.2602539,14.4794922 C51.2602539,13.1152344 51.7651367,12.3095703 53.1938477,12.2880859 C53.8061523,12.2773438 54.2573242,12.1376953 54.5581055,11.8798828 C54.8588867,11.6220703 55.0092773,11.2460938 55.0092773,10.7519531 C55.0092773,10.2148438 54.8588867,9.828125 54.5581055,9.59179688 C54.3325195,9.3984375 53.9995117,9.30175781 53.5805664,9.30175781 C52.4311523,9.30175781 51.4858398,10.1503906 51.1850586,11.5791016 L51.1206055,11.5791016 L51.1206055,10.8271484 C51.1206055,9.828125 50.519043,9.24804688 49.6381836,9.24804688 C48.7358398,9.24804688 48.1235352,9.828125 48.1235352,10.8271484 L48.1235352,19.5927734 C48.1235352,20.6347656 48.746582,21.2255859 49.6918945,21.2255859 Z M65.0639648,21.1933594 C65.6010742,21.1933594 65.9770508,20.8173828 65.9770508,20.2802734 L65.9770508,6.3046875 C65.9770508,5.71386719 65.590332,5.30566406 65.0424805,5.30566406 C64.4946289,5.30566406 64.1079102,5.71386719 64.1079102,6.3046875 L64.1079102,11.6435547 L64.0649414,11.6435547 C63.3989258,10.4189453 62.1098633,9.63476562 60.5092773,9.63476562 C57.6948242,9.63476562 55.7719727,11.9121094 55.7719727,15.4140625 C55.7719727,18.9160156 57.7055664,21.1933594 60.5522461,21.1933594 C62.3032227,21.1933594 63.4633789,20.3339844 64.0756836,19.0019531 L64.1079102,19.0019531 L64.1079102,20.2802734 C64.1079102,20.828125 64.5375977,21.1933594 65.0639648,21.1933594 Z M60.9067383,19.5498047 C58.9301758,19.5498047 57.684082,17.9492188 57.684082,15.4140625 C57.684082,12.8896484 58.9301758,11.2783203 60.9067383,11.2783203 C62.8295898,11.2783203 64.1186523,12.921875 64.1186523,15.4140625 C64.1186523,17.9169922 62.8295898,19.5498047 60.9067383,19.5498047 Z M73.1313477,21.1933594 C76.2143555,21.1933594 78.2983398,18.9697266 78.2983398,15.4140625 C78.2983398,11.8476562 76.2143555,9.63476562 73.1313477,9.63476562 C70.0375977,9.63476562 67.9536133,11.8476562 67.9536133,15.4140625 C67.9536133,18.9697266 70.0375977,21.1933594 73.1313477,21.1933594 Z M73.1313477,19.5498047 C71.1547852,19.5498047 69.8549805,18.0458984 69.8549805,15.4140625 C69.8549805,12.7822266 71.1547852,11.2783203 73.1313477,11.2783203 C75.1079102,11.2783203 76.3969727,12.7822266 76.3969727,15.4140625 C76.3969727,18.0458984 75.1079102,19.5498047 73.1313477,19.5498047 Z M81.2094727,7.94824219 C81.8540039,7.94824219 82.3803711,7.421875 82.3803711,6.78808594 C82.3803711,6.14355469 81.8540039,5.62792969 81.2094727,5.62792969 C80.5756836,5.62792969 80.0493164,6.14355469 80.0493164,6.78808594 C80.0493164,7.421875 80.5756836,7.94824219 81.2094727,7.94824219 Z M79.2866211,24.8349609 C81.0913086,24.8349609 82.144043,23.8144531 82.144043,21.8164062 L82.144043,10.6337891 C82.144043,10.0429688 81.7573242,9.63476562 81.2094727,9.63476562 C80.6616211,9.63476562 80.2749023,10.0429688 80.2749023,10.6337891 L80.2749023,21.6337891 C80.2749023,22.6220703 79.9633789,23.1054688 79.0932617,23.234375 L79.0180664,23.2451172 C78.4272461,23.3310547 78.1801758,23.6210938 78.1801758,24.0292969 C78.1801758,24.5126953 78.5991211,24.8349609 79.2866211,24.8349609 Z M89.2983398,21.1933594 C92.3813477,21.1933594 94.465332,18.9697266 94.465332,15.4140625 C94.465332,11.8476562 92.3813477,9.63476562 89.2983398,9.63476562 C86.2045898,9.63476562 84.1206055,11.8476562 84.1206055,15.4140625 C84.1206055,18.9697266 86.2045898,21.1933594 89.2983398,21.1933594 Z M89.2983398,19.5498047 C87.3217773,19.5498047 86.0219727,18.0458984 86.0219727,15.4140625 C86.0219727,12.7822266 87.3217773,11.2783203 89.2983398,11.2783203 C91.2749023,11.2783203 92.5639648,12.7822266 92.5639648,15.4140625 C92.5639648,18.0458984 91.2749023,19.5498047 89.2983398,19.5498047 Z M97.2797852,21.1074219 C97.9672852,21.1074219 98.5043945,20.5703125 98.5043945,19.8828125 C98.5043945,19.1953125 97.9672852,18.6582031 97.2797852,18.6582031 C96.5922852,18.6582031 96.0551758,19.1953125 96.0551758,19.8828125 C96.0551758,20.5703125 96.5922852,21.1074219 97.2797852,21.1074219 Z M105.250488,21.1933594 C107.280762,21.1933594 109.053223,20.0761719 109.590332,18.5292969 C109.644043,18.3574219 109.67627,18.1962891 109.67627,18.0566406 C109.67627,17.5732422 109.354004,17.2402344 108.870605,17.2402344 C108.462402,17.2402344 108.258301,17.390625 107.989746,17.8955078 C107.409668,18.9697266 106.593262,19.5498047 105.250488,19.5498047 C103.327637,19.5498047 101.995605,17.9814453 101.995605,15.4140625 C101.995605,12.9111328 103.306152,11.2783203 105.250488,11.2783203 C106.539551,11.2783203 107.388184,11.8261719 107.979004,12.9326172 C108.236816,13.4160156 108.462402,13.5878906 108.870605,13.5878906 C109.354004,13.5878906 109.665527,13.265625 109.665527,12.7714844 C109.665527,12.6533203 109.644043,12.5136719 109.601074,12.3740234 C109.171387,10.8271484 107.334473,9.63476562 105.229004,9.63476562 C102.135254,9.63476562 100.094238,11.9228516 100.094238,15.4355469 C100.094238,18.9697266 102.156738,21.1933594 105.250488,21.1933594 Z M116.293457,21.1933594 C119.376465,21.1933594 121.460449,18.9697266 121.460449,15.4140625 C121.460449,11.8476562 119.376465,9.63476562 116.293457,9.63476562 C113.199707,9.63476562 111.115723,11.8476562 111.115723,15.4140625 C111.115723,18.9697266 113.199707,21.1933594 116.293457,21.1933594 Z M116.293457,19.5498047 C114.316895,19.5498047 113.01709,18.0458984 113.01709,15.4140625 C113.01709,12.7822266 114.316895,11.2783203 116.293457,11.2783203 C118.27002,11.2783203 119.559082,12.7822266 119.559082,15.4140625 C119.559082,18.0458984 118.27002,19.5498047 116.293457,19.5498047 Z M137.702637,21.1933594 C138.271973,21.1933594 138.637207,20.7636719 138.637207,20.1943359 L138.637207,13.2871094 C138.637207,11.0742188 137.208496,9.63476562 134.995605,9.63476562 C133.427246,9.63476562 132.116699,10.4296875 131.493652,11.7617188 L131.450684,11.7617188 C130.967285,10.4082031 129.839355,9.63476562 128.313965,9.63476562 C126.810059,9.63476562 125.671387,10.4296875 125.14502,11.6113281 L125.102051,11.6113281 L125.102051,10.5800781 C125.102051,10.0214844 124.736816,9.63476562 124.221191,9.63476562 C123.705566,9.63476562 123.340332,10.0214844 123.340332,10.5800781 L123.340332,20.1943359 C123.340332,20.7636719 123.705566,21.1933594 124.274902,21.1933594 C124.844238,21.1933594 125.209473,20.7636719 125.209473,20.1943359 L125.209473,13.9960938 C125.209473,12.4492188 126.283691,11.2890625 127.766113,11.2890625 C129.151855,11.2890625 130.054199,12.1699219 130.054199,13.5126953 L130.054199,20.1943359 C130.054199,20.7636719 130.419434,21.1933594 130.98877,21.1933594 C131.558105,21.1933594 131.92334,20.7636719 131.92334,20.1943359 L131.92334,13.8994141 C131.92334,12.3847656 132.965332,11.2890625 134.447754,11.2890625 C135.919434,11.2890625 136.768066,12.1914062 136.768066,13.7167969 L136.768066,20.1943359 C136.768066,20.7636719 137.133301,21.1933594 137.702637,21.1933594 Z" id="callerdojo.com"></path>
            </g>
        </g>
    </g>
</svg>