<?xml version="1.0" encoding="UTF-8"?>
<svg width="140px" height="20px" viewBox="0 0 140 20" version="1.1" xmlns="http://www.w3.org/2000/svg" xmlns:xlink="http://www.w3.org/1999/xlink">
    <title>watermark-dark</title>
    <g id="web" stroke="none" stroke-width="1" fill="none" fill-rule="evenodd" fill-opacity="0.602216387">
        <g id="callerdojo.com" transform="translate(-992.000000, -683.000000)" fill="#6B6B6B" fill-rule="nonzero">
            <g id="watermark-dark" transform="translate(992.500000, 683.000000)">
                <path d="M6.47607422,16.2470703 C8.67822266,16.2470703 10.644043,15.1513672 11.331543,13.5830078 C11.4711914,13.2714844 11.5356445,13.0136719 11.5356445,12.7666016 C11.5356445,11.9931641 10.9448242,11.5097656 10.2143555,11.5097656 C9.54833984,11.5097656 9.20458984,11.7783203 8.78564453,12.4335938 C8.30224609,13.25 7.62548828,13.7871094 6.52978516,13.7871094 C4.96142578,13.7871094 3.98388672,12.4980469 3.98388672,10.2314453 C3.98388672,8.0078125 4.96142578,6.69726562 6.55126953,6.69726562 C7.55029297,6.69726562 8.24853516,7.15917969 8.81787109,8.16894531 C9.14013672,8.73828125 9.51611328,8.98535156 10.1391602,8.98535156 C10.8803711,8.98535156 11.4819336,8.53417969 11.4819336,7.76074219 C11.4819336,7.53515625 11.4174805,7.25585938 11.3100586,6.98730469 C10.6870117,5.35449219 8.76416016,4.23730469 6.45458984,4.23730469 C2.99560547,4.23730469 0.804199219,6.55761719 0.804199219,10.2421875 C0.804199219,13.9697266 3.00634766,16.2470703 6.47607422,16.2470703 Z M21.7084961,16.2255859 C22.6000977,16.2255859 23.2338867,15.6884766 23.2338867,14.6464844 L23.2338867,8.08300781 C23.2338867,5.76269531 21.3110352,4.23730469 18.3569336,4.23730469 C15.972168,4.23730469 14.1245117,5.0859375 13.5874023,6.4609375 C13.4799805,6.69726562 13.4262695,6.92285156 13.4262695,7.16992188 C13.4262695,7.87890625 13.9741211,8.37304688 14.7368164,8.37304688 C15.2416992,8.37304688 15.6391602,8.1796875 15.9829102,7.79296875 C16.6811523,6.890625 17.2612305,6.57910156 18.2172852,6.57910156 C19.3989258,6.57910156 20.1508789,7.20214844 20.1508789,8.27636719 L20.1508789,9.0390625 L17.2504883,9.2109375 C14.371582,9.3828125 12.7602539,10.5966797 12.7602539,12.6914062 C12.7602539,14.7646484 14.425293,16.1826172 16.6166992,16.1826172 C18.0561523,16.1826172 19.4956055,15.4628906 20.1401367,14.2382812 L20.2045898,14.2382812 L20.2045898,14.8291016 C20.269043,15.7529297 20.8598633,16.2255859 21.7084961,16.2255859 Z M17.6479492,13.9160156 C16.5952148,13.9160156 15.8862305,13.3789062 15.8862305,12.5195312 C15.8862305,11.703125 16.5522461,11.1767578 17.7231445,11.0908203 L20.1508789,10.9404297 L20.1508789,11.7783203 C20.1508789,13.0244141 19.0229492,13.9160156 17.6479492,13.9160156 Z M26.8969727,16.2255859 C27.8208008,16.2255859 28.465332,15.6669922 28.465332,14.5927734 L28.465332,1.90625 C28.465332,0.83203125 27.8208008,0.262695312 26.8969727,0.262695312 C25.9838867,0.262695312 25.3286133,0.83203125 25.3286133,1.90625 L25.3286133,14.5927734 C25.3286133,15.6669922 25.9838867,16.2255859 26.8969727,16.2255859 Z M32.2250977,16.2255859 C33.1489258,16.2255859 33.793457,15.6669922 33.793457,14.5927734 L33.793457,1.90625 C33.793457,0.83203125 33.1489258,0.262695312 32.2250977,0.262695312 C31.3120117,0.262695312 30.6567383,0.83203125 30.6567383,1.90625 L30.6567383,14.5927734 C30.6567383,15.6669922 31.3120117,16.2255859 32.2250977,16.2255859 Z M41.2055664,16.2470703 C43.4291992,16.2470703 45.2124023,15.4091797 45.9750977,13.9912109 C46.1147461,13.7333984 46.1899414,13.4755859 46.1899414,13.2285156 C46.1899414,12.5087891 45.6420898,12.0791016 44.965332,12.0791016 C44.5571289,12.0791016 44.277832,12.1972656 43.9448242,12.5410156 C43.0961914,13.5400391 42.3442383,13.9267578 41.1948242,13.9267578 C39.6049805,13.9267578 38.5737305,12.8095703 38.5737305,11.1015625 L38.5737305,10.9619141 L45.1479492,10.9619141 C46.0180664,10.9619141 46.512207,10.4677734 46.512207,9.59765625 C46.512207,6.47167969 44.3208008,4.23730469 41.0551758,4.23730469 C37.6499023,4.23730469 35.4907227,6.58984375 35.4907227,10.2958984 C35.4907227,14.0234375 37.6069336,16.2470703 41.2055664,16.2470703 Z M43.4936523,9.0390625 L38.605957,9.0390625 C38.7133789,7.56738281 39.7124023,6.55761719 41.0874023,6.55761719 C42.4624023,6.55761719 43.4291992,7.53515625 43.4936523,9.0390625 Z M49.6918945,16.2255859 C50.6479492,16.2255859 51.2602539,15.6347656 51.2602539,14.5927734 L51.2602539,9.47949219 C51.2602539,8.11523438 51.7651367,7.30957031 53.1938477,7.28808594 C53.8061523,7.27734375 54.2573242,7.13769531 54.5581055,6.87988281 C54.8588867,6.62207031 55.0092773,6.24609375 55.0092773,5.75195312 C55.0092773,5.21484375 54.8588867,4.828125 54.5581055,4.59179688 C54.3325195,4.3984375 53.9995117,4.30175781 53.5805664,4.30175781 C52.4311523,4.30175781 51.4858398,5.15039062 51.1850586,6.57910156 L51.1206055,6.57910156 L51.1206055,5.82714844 C51.1206055,4.828125 50.519043,4.24804688 49.6381836,4.24804688 C48.7358398,4.24804688 48.1235352,4.828125 48.1235352,5.82714844 L48.1235352,14.5927734 C48.1235352,15.6347656 48.746582,16.2255859 49.6918945,16.2255859 Z M65.0639648,16.1933594 C65.6010742,16.1933594 65.9770508,15.8173828 65.9770508,15.2802734 L65.9770508,1.3046875 C65.9770508,0.713867188 65.590332,0.305664062 65.0424805,0.305664062 C64.4946289,0.305664062 64.1079102,0.713867188 64.1079102,1.3046875 L64.1079102,6.64355469 L64.0649414,6.64355469 C63.3989258,5.41894531 62.1098633,4.63476562 60.5092773,4.63476562 C57.6948242,4.63476562 55.7719727,6.91210938 55.7719727,10.4140625 C55.7719727,13.9160156 57.7055664,16.1933594 60.5522461,16.1933594 C62.3032227,16.1933594 63.4633789,15.3339844 64.0756836,14.0019531 L64.1079102,14.0019531 L64.1079102,15.2802734 C64.1079102,15.828125 64.5375977,16.1933594 65.0639648,16.1933594 Z M60.9067383,14.5498047 C58.9301758,14.5498047 57.684082,12.9492188 57.684082,10.4140625 C57.684082,7.88964844 58.9301758,6.27832031 60.9067383,6.27832031 C62.8295898,6.27832031 64.1186523,7.921875 64.1186523,10.4140625 C64.1186523,12.9169922 62.8295898,14.5498047 60.9067383,14.5498047 Z M73.1313477,16.1933594 C76.2143555,16.1933594 78.2983398,13.9697266 78.2983398,10.4140625 C78.2983398,6.84765625 76.2143555,4.63476562 73.1313477,4.63476562 C70.0375977,4.63476562 67.9536133,6.84765625 67.9536133,10.4140625 C67.9536133,13.9697266 70.0375977,16.1933594 73.1313477,16.1933594 Z M73.1313477,14.5498047 C71.1547852,14.5498047 69.8549805,13.0458984 69.8549805,10.4140625 C69.8549805,7.78222656 71.1547852,6.27832031 73.1313477,6.27832031 C75.1079102,6.27832031 76.3969727,7.78222656 76.3969727,10.4140625 C76.3969727,13.0458984 75.1079102,14.5498047 73.1313477,14.5498047 Z M81.2094727,2.94824219 C81.8540039,2.94824219 82.3803711,2.421875 82.3803711,1.78808594 C82.3803711,1.14355469 81.8540039,0.627929688 81.2094727,0.627929688 C80.5756836,0.627929688 80.0493164,1.14355469 80.0493164,1.78808594 C80.0493164,2.421875 80.5756836,2.94824219 81.2094727,2.94824219 Z M79.2866211,19.8349609 C81.0913086,19.8349609 82.144043,18.8144531 82.144043,16.8164062 L82.144043,5.63378906 C82.144043,5.04296875 81.7573242,4.63476562 81.2094727,4.63476562 C80.6616211,4.63476562 80.2749023,5.04296875 80.2749023,5.63378906 L80.2749023,16.6337891 C80.2749023,17.6220703 79.9633789,18.1054688 79.0932617,18.234375 L79.0180664,18.2451172 C78.4272461,18.3310547 78.1801758,18.6210938 78.1801758,19.0292969 C78.1801758,19.5126953 78.5991211,19.8349609 79.2866211,19.8349609 Z M89.2983398,16.1933594 C92.3813477,16.1933594 94.465332,13.9697266 94.465332,10.4140625 C94.465332,6.84765625 92.3813477,4.63476562 89.2983398,4.63476562 C86.2045898,4.63476562 84.1206055,6.84765625 84.1206055,10.4140625 C84.1206055,13.9697266 86.2045898,16.1933594 89.2983398,16.1933594 Z M89.2983398,14.5498047 C87.3217773,14.5498047 86.0219727,13.0458984 86.0219727,10.4140625 C86.0219727,7.78222656 87.3217773,6.27832031 89.2983398,6.27832031 C91.2749023,6.27832031 92.5639648,7.78222656 92.5639648,10.4140625 C92.5639648,13.0458984 91.2749023,14.5498047 89.2983398,14.5498047 Z M97.2797852,16.1074219 C97.9672852,16.1074219 98.5043945,15.5703125 98.5043945,14.8828125 C98.5043945,14.1953125 97.9672852,13.6582031 97.2797852,13.6582031 C96.5922852,13.6582031 96.0551758,14.1953125 96.0551758,14.8828125 C96.0551758,15.5703125 96.5922852,16.1074219 97.2797852,16.1074219 Z M105.250488,16.1933594 C107.280762,16.1933594 109.053223,15.0761719 109.590332,13.5292969 C109.644043,13.3574219 109.67627,13.1962891 109.67627,13.0566406 C109.67627,12.5732422 109.354004,12.2402344 108.870605,12.2402344 C108.462402,12.2402344 108.258301,12.390625 107.989746,12.8955078 C107.409668,13.9697266 106.593262,14.5498047 105.250488,14.5498047 C103.327637,14.5498047 101.995605,12.9814453 101.995605,10.4140625 C101.995605,7.91113281 103.306152,6.27832031 105.250488,6.27832031 C106.539551,6.27832031 107.388184,6.82617188 107.979004,7.93261719 C108.236816,8.41601562 108.462402,8.58789062 108.870605,8.58789062 C109.354004,8.58789062 109.665527,8.265625 109.665527,7.77148438 C109.665527,7.65332031 109.644043,7.51367188 109.601074,7.37402344 C109.171387,5.82714844 107.334473,4.63476562 105.229004,4.63476562 C102.135254,4.63476562 100.094238,6.92285156 100.094238,10.4355469 C100.094238,13.9697266 102.156738,16.1933594 105.250488,16.1933594 Z M116.293457,16.1933594 C119.376465,16.1933594 121.460449,13.9697266 121.460449,10.4140625 C121.460449,6.84765625 119.376465,4.63476562 116.293457,4.63476562 C113.199707,4.63476562 111.115723,6.84765625 111.115723,10.4140625 C111.115723,13.9697266 113.199707,16.1933594 116.293457,16.1933594 Z M116.293457,14.5498047 C114.316895,14.5498047 113.01709,13.0458984 113.01709,10.4140625 C113.01709,7.78222656 114.316895,6.27832031 116.293457,6.27832031 C118.27002,6.27832031 119.559082,7.78222656 119.559082,10.4140625 C119.559082,13.0458984 118.27002,14.5498047 116.293457,14.5498047 Z M137.702637,16.1933594 C138.271973,16.1933594 138.637207,15.7636719 138.637207,15.1943359 L138.637207,8.28710938 C138.637207,6.07421875 137.208496,4.63476562 134.995605,4.63476562 C133.427246,4.63476562 132.116699,5.4296875 131.493652,6.76171875 L131.450684,6.76171875 C130.967285,5.40820312 129.839355,4.63476562 128.313965,4.63476562 C126.810059,4.63476562 125.671387,5.4296875 125.14502,6.61132812 L125.102051,6.61132812 L125.102051,5.58007812 C125.102051,5.02148438 124.736816,4.63476562 124.221191,4.63476562 C123.705566,4.63476562 123.340332,5.02148438 123.340332,5.58007812 L123.340332,15.1943359 C123.340332,15.7636719 123.705566,16.1933594 124.274902,16.1933594 C124.844238,16.1933594 125.209473,15.7636719 125.209473,15.1943359 L125.209473,8.99609375 C125.209473,7.44921875 126.283691,6.2890625 127.766113,6.2890625 C129.151855,6.2890625 130.054199,7.16992188 130.054199,8.51269531 L130.054199,15.1943359 C130.054199,15.7636719 130.419434,16.1933594 130.98877,16.1933594 C131.558105,16.1933594 131.92334,15.7636719 131.92334,15.1943359 L131.92334,8.89941406 C131.92334,7.38476562 132.965332,6.2890625 134.447754,6.2890625 C135.919434,6.2890625 136.768066,7.19140625 136.768066,8.71679688 L136.768066,15.1943359 C136.768066,15.7636719 137.133301,16.1933594 137.702637,16.1933594 Z" id="callerdojo.com"></path>
            </g>
        </g>
    </g>
</svg>